<svg width="39" height="86" viewBox="0 0 39 86" fill="none" xmlns="http://www.w3.org/2000/svg">
<g opacity="0.6">
<rect x="6.77686" y="2" width="25.4757" height="4.7767" rx="2.38835" stroke="#669AFF" stroke-width="3"/>
<rect x="15.5342" y="6.77661" width="7.96116" height="19.9029" stroke="#669AFF" stroke-width="3"/>
<path d="M17.2807 45.7865H13.9419V31.4564L16.7283 26.6797H22.3011L25.0875 31.4564V45.7865H21.7478" stroke="#669AFF" stroke-width="3"/>
<path d="M16.3301 45.7864L16.3301 54M22.699 45.7864V54" stroke="#669AFF" stroke-width="3"/>
<rect x="5.98047" y="54.5437" width="27.068" height="12.7379" stroke="#669AFF" stroke-width="3"/>
<rect x="2" y="51.3591" width="3.98058" height="19.1068" rx="1.99029" stroke="#669AFF" stroke-width="3"/>
<rect x="33.0483" y="51.3591" width="3.98058" height="19.1068" rx="1.99029" stroke="#669AFF" stroke-width="3"/>
<rect x="13.1455" y="67.2815" width="12.7379" height="12.7379" stroke="#669AFF" stroke-width="3"/>
<rect x="9.96094" y="80.0195" width="19.1068" height="3.98058" rx="1.99029" stroke="#669AFF" stroke-width="3"/>
</g>
<g opacity="0.6">
<rect x="6.77686" y="2" width="25.4757" height="4.7767" rx="2.38835" stroke="#669AFF" stroke-width="3"/>
<rect x="15.5342" y="6.77661" width="7.96116" height="19.9029" stroke="#669AFF" stroke-width="3"/>
<path d="M17.2807 45.7865H13.9419V31.4564L16.7283 26.6797H22.3011L25.0875 31.4564V45.7865H21.7478" stroke="#669AFF" stroke-width="3"/>
<path d="M16.3301 45.7864L16.3301 54M22.699 45.7864V54" stroke="#669AFF" stroke-width="3"/>
<rect x="5.98047" y="54.5437" width="27.068" height="12.7379" stroke="#669AFF" stroke-width="3"/>
<rect x="2" y="51.3591" width="3.98058" height="19.1068" rx="1.99029" stroke="#669AFF" stroke-width="3"/>
<rect x="33.0483" y="51.3591" width="3.98058" height="19.1068" rx="1.99029" stroke="#669AFF" stroke-width="3"/>
<rect x="13.1455" y="67.2815" width="12.7379" height="12.7379" stroke="#669AFF" stroke-width="3"/>
<rect x="9.96094" y="80.0195" width="19.1068" height="3.98058" rx="1.99029" stroke="#669AFF" stroke-width="3"/>
</g>
<g opacity="0.6">
<rect x="6.77686" y="2" width="25.4757" height="4.7767" rx="2.38835" stroke="#669AFF" stroke-width="3"/>
<rect x="15.5342" y="6.77661" width="7.96116" height="19.9029" stroke="#669AFF" stroke-width="3"/>
<path d="M17.2807 45.7865H13.9419V31.4564L16.7283 26.6797H22.3011L25.0875 31.4564V45.7865H21.7478" stroke="#669AFF" stroke-width="3"/>
<path d="M16.3301 45.7864L16.3301 54M22.699 45.7864V54" stroke="#669AFF" stroke-width="3"/>
<rect x="5.98047" y="54.5437" width="27.068" height="12.7379" stroke="#669AFF" stroke-width="3"/>
<rect x="2" y="51.3591" width="3.98058" height="19.1068" rx="1.99029" stroke="#669AFF" stroke-width="3"/>
<rect x="33.0483" y="51.3591" width="3.98058" height="19.1068" rx="1.99029" stroke="#669AFF" stroke-width="3"/>
<rect x="13.1455" y="67.2815" width="12.7379" height="12.7379" stroke="#669AFF" stroke-width="3"/>
<rect x="9.96094" y="80.0195" width="19.1068" height="3.98058" rx="1.99029" stroke="#669AFF" stroke-width="3"/>
</g>
</svg>
